<?xml version="1.0" encoding="utf-8"?>
<!-- Generator: Adobe Illustrator 18.0.0, SVG Export Plug-In . SVG Version: 6.00 Build 0)  -->
<!DOCTYPE svg PUBLIC "-//W3C//DTD SVG 1.1//EN" "http://www.w3.org/Graphics/SVG/1.1/DTD/svg11.dtd">

<?xml-stylesheet href="style-guide.css" type="text/css"?>

<svg version="1.1" id="Layer_1" xmlns="http://www.w3.org/2000/svg" xmlns:xlink="http://www.w3.org/1999/xlink" x="0px" y="0px"
	 viewBox="0 0 792 1000" enable-background="new 0 0 792 1751" xml:space="preserve">
<style>
	@font-face{
		font-family: HandOfSean;
		src: url(../font/hand_of_sean.ttf)
	}

	.g-hover:hover * .circle-hover{
		fill: #E0E0E0;
	}

</style>

<g>
	<path fill="#FFFFFF" d="M388.5,239.1c-18,15.3-39.2-8.3-44.7-24c-14.2,4.4-23,1.8-30.8-11.5c-5.2-9-7.1-18.8-5.2-29
		c1.1-5.9,3.5-12,6.1-17.3c0.9-1.8,5.2-6.5,5.4-8.2c0.7-5.2-9.4-12-12.1-17.4c-3.2-6.3-2.7-11,0.7-17.2c2.9-5.3,6.9-9.2,12.4-12.2
		c4.7-2.5,11.4-2.3,14.3-7.3l1.3-1.3c7.8-14.5,19.2-31.2,36.1-18.1c12.7-5.4,23.1-16.6,37.1-20.4c15.4-4.3,34.4,2.1,47.4,10.5
		c6.4,4.1,5.9,4.3,14,3.5c11.2-1.1,21.2,1.3,31.4,5.9c12.7,5.8,11.4,14.7,7.3,26c11.6,8.7,34.2,18.7,36.1,35.5
		c0.7,5.8-2.8,14.4-7.5,18c-2.7,2-9.5,1.4-11.3,3.3c-2.1,2.2-0.7,10.8-1.2,13.8c-1.6,9.9-5.2,22.9-10.9,31.3
		c-3.8,5.6-10.5,10.5-17.6,10.8c-6.6,0.3-10.8-4.6-17-5.8c-3.1,10.5-3.2,23.2-13.7,30.4c-8.2,5.5-22.9,8.1-32.4,5.3
		c-4.8-1.4-5.3-3.4-9.8-1.8c-4.2,1.5-6.3,6.1-11.2,7.1c-7.8,1.6-15.9-3.8-20.2-9.3L388.5,239.1z"/>
	<g>
		<path fill="#1C75BC" d="M386.7,237.3c-16.5,13.2-35.1-8.2-40.5-22.9c-0.5-1.3-1.7-2.2-3.1-1.7c-7.7,2.3-15.4,3.1-21.8-2.5
			c-7.6-6.5-11.4-17.6-11.7-27.2c-0.4-10,3.4-20.7,9.4-28.6c4.4-5.9,2.2-10.1-2.3-15.2c-2.5-2.9-5.5-5.4-7.4-8.7
			c-3.4-6-1.1-11.9,2.3-17.2c2.7-4.1,7-7.7,11.6-9.5c3.5-1.4,7.5-1.8,10.6-4.2c5.8-4.6,8.3-12.4,12.9-18.1c2.6-3.2,5.8-6,9.7-7.4
			c5.2-1.9,10.3,0.8,14.4,3.8c0.8,0.6,1.8,0.3,2.5,0c13.2-5.9,23.7-16.9,37.9-20.6c14.4-3.7,30.6,2.5,42.8,9.8
			c3.7,2.3,6.8,4.9,11.3,5c3.5,0.1,7-0.6,10.4-0.7c4.3-0.1,8.5,0.6,12.6,1.5c6.8,1.6,16.1,4.2,20,10.5c3,5,0.2,12.1-1.6,16.9
			c-0.4,1.1,0.3,2.2,1.1,2.8c10.1,7.4,21.7,12.8,29.9,22.5c4.8,5.7,6.1,12.3,3.6,19.3c-1.2,3.4-3.6,7.3-7.2,8.2
			c-2.8,0.8-5.6,0.7-8.3,1.9c-4.1,1.8-3.1,9.4-3,12.8c0.2,6.9-2.2,14.2-4.4,20.7c-2.7,8.1-6.8,15.8-14.3,20.3
			c-9,5.4-15.3-1.4-23.8-3.4c-1.3-0.3-2.7,0.4-3.1,1.7c-2.7,9.5-3.2,20.2-10.7,27.5c-7.4,7.1-21.4,8.8-31.1,6.8
			c-3.6-0.7-6.9-3.6-10.8-2.5c-4.5,1.3-7,4.6-10.9,7c-5.8,3.4-13.7-2-17.6-5.8c-2.7-2.6-3.3-2.9-7-3.4c-3.2-0.5-4.5,4.3-1.3,4.8
			c1.3,0.2,2.5,0.4,3.8,0.6c0.5,0.1,4.1,4.3,5,5c4.4,3,9.7,5.3,15.1,4.5c5.4-0.8,7.9-4.5,12.2-7.1c3-1.8,6.1,0.6,8.9,1.6
			c2.3,0.8,4.8,1,7.1,1.1c10.3,0.8,22-2.3,30-8.9c8.6-7.2,9.2-19.7,12-29.7c-1,0.6-2.1,1.2-3.1,1.7c4.1,1,7.6,3.3,11.4,4.8
			c3.7,1.5,7.6,1.2,11.3,0.2c8.1-2.1,13.9-9.1,17.6-16.2c4.1-7.9,6.5-16.8,8-25.5c0.5-3.1,0.4-6.1,0.3-9.2c0-1.6,0-3.1,0.4-4.7
			c0.2-1,4-1.1,4.9-1.2c7.5-1.1,11.2-6.7,13.6-13.5c2.4-6.7,0.8-13.5-2.9-19.4c-7.6-12.3-22.2-18.5-33.4-26.7
			c0.4,0.9,0.8,1.9,1.1,2.8c1.9-5.3,3.4-10.7,2.6-16.4c-0.8-6-6.1-10-11.1-12.4c-7.5-3.6-15.7-5.8-24-6.4c-4.3-0.3-8.5,0.3-12.8,0.5
			c-3,0.2-4.9-1.1-7.3-2.7c-13.3-8.7-29.4-14.7-45.5-12.6C397,53.9,385.3,67,370.7,73.5c0.8,0,1.7,0,2.5,0c-7.6-5.6-16.1-6.8-24-1.3
			c-3.6,2.5-6.4,6-9,9.5c-2.7,3.6-4.3,8.5-7.5,11.6c-2,2-3.2,3.2-6,4.1c-2.2,0.7-4.6,1.2-6.7,2.2c-4.6,2.2-8.5,5.4-11.6,9.4
			c-6.3,8-8.2,18.1-1.7,26.6c2.8,3.6,6.4,6.6,9,10.3c2.5,3.7-2.2,7-4,10c-6,10.2-8.3,22.7-6.4,34.2c1.5,9.2,6.9,20,14.7,25.4
			c7.5,5.2,16.1,4.4,24.4,1.9c-1-0.6-2.1-1.2-3.1-1.7c6.9,18.6,29,41,48.9,25.1C392.8,238.8,389.2,235.3,386.7,237.3z"/>
	</g>
</g>
<!--pm-->
<a  xlink:href="../general.html#pms" target="_parent">
	<rect x="371.8" y="603.2" fill="#FFFFFF" width="202" height="75.9"/>
</a>
<!--UI/UX-->
<a xlink:href="../general.html#uiux" target="_parent">
	<rect x="371.8" y="677.6" fill="#FFFFFF" width="202" height="86.4"/>
</a>
<!--QA-->
<a xlink:href="../general.html#qa" target="_parent">
	<rect x="369.3" y="763.9" fill="#FFFFFF" width="202" height="86.4"/>
</a>

<!--deployment-->
<a  xlink:href="../general.html#deployment" target="_parent">
	<g class="g-hover">

			
		<g>
				<path class="circle-hover" id="circle" fill="#FFFFFF" d="M367.7,1425.2c-14.5-6.8-37.8,13.7-47.5,23.5c-20.9,21-27.4,45.8-15.2,73.1c24.9,55.5,118.5,51.9,148.7,1.4
			c24.5-40.9,2-80.2-36.8-100.2c-15.9-8.2-38.8-11.8-53.8,1.1c0.5,1.7,1.6,2.9,3.5,3.4"/>

				<path fill="#1C75BC" d="M369,1423c-17.6-7.5-37.7,11.3-49.2,22.5c-17.7,17.2-27.3,39.8-21.5,64.4c9.1,38.5,47.8,56.6,84.7,54.5
				c38.3-2.2,76.2-26.3,82.7-66.3c3.6-22.2-6.2-43.4-21.7-58.9c-16-16-39.7-28.8-62.9-25.7c-7.4,1-14,4-19.8,8.7
				c-0.6,0.5-0.9,1.7-0.6,2.4c1,2.4,2.2,3.9,4.6,4.9c2.9,1.3,5.5-3,2.5-4.3c-1.1-0.2-1.9-0.9-2.3-2c-0.2,0.8-0.4,1.6-0.6,2.4
				c21.3-17.5,52.1-3,70.3,12.1c18.7,15.5,30.1,38.7,24.9,63.1c-8.7,41.2-52.8,61.1-91.5,58.4c-31.8-2.3-59.4-21.6-66.2-53.7
				c-4.6-21.6,5.8-41.6,20.8-56.5c6-5.9,12.5-11.3,19.6-15.9c6.4-4.1,15.8-9.2,23.6-5.9C369.4,1428.6,371.9,1424.3,369,1423L369,1423
				z"/>

				<a xlink:href="../general.html#deployment" target="_parent">
					
					<text transform="matrix(1 0 0 1 324.6772 1483.2563)"><tspan x="0" y="0" font-family="'HandOfSean'" font-size="18">Deploy &amp; have </tspan><tspan x="32.7" y="21.6" font-family="'HandOfSean'" font-size="18">a beer </tspan><tspan x="19.4" y="43.2" font-family="'HandOfSean'" font-size="18">with team</tspan></text>
				</a>

		</g>
	</g>
</a>

<!--UX Review with PM+UI-->
<a  xlink:href="../components.html" target="_parent">
	<g>
		<path  fill="#FFFFFF" d="M455,1177.1c-0.5,11.9-3.2,22.6,0,34.7c5.3,20.3,21.8,37.3,40.8,46.1c47.9,22.2,126.3-0.3,111.4-65.3
			c-9.5-41.2-65.1-75-105.1-56.3c-17.5,8.2-37.6,24.8-41,44.8"/>
		<g>
			<path fill="#808285" d="M452.5,1177.1c-0.7,14.7-3.1,28.3,2.4,42.5c4.4,11.3,12.1,21,21.2,28.8c15,12.8,34.1,19.1,53.6,20.2
				c32.4,1.9,71.5-12.2,80.2-46.8c9.6-38.3-20.6-73.5-54-87.3c-17.6-7.2-37.7-8.3-55.2-0.3c-18.8,8.5-38.1,25.2-42.1,46.3
				c-0.6,3.2,4.2,4.5,4.8,1.3c4.5-23.5,29.8-42.7,52.4-47.2c22.1-4.4,45.7,5.2,62.7,19.1c17,13.8,28.2,33.6,28,55.8
				c-0.2,17.9-10.2,33-25.2,42.3c-21,13.1-48.7,14.9-72.1,8.5c-15.3-4.2-28.9-13-39.2-25.1c-5.9-6.9-10.2-15.2-12.6-24
				c-3-11.1-0.4-22.8,0.1-34.1C457.7,1173.9,452.7,1173.9,452.5,1177.1L452.5,1177.1z"/>
		</g>
	</g>
</a>

<!--QA-->
<a xlink:href="../components.html" target="_parent" class="qa-test">
	<g>
		<path fill="#FFFFFF" d="M205,1150.1c-21.6-9.6-67.8,42.6-77.3,59c-13,22.6-6.2,40.7,13.1,56.9c37.8,31.6,113.3,34.8,130.2-19.6
			c7.3-23.4-1.8-50.3-18.5-67.5c-7.2-7.4-36.8-34.2-48.6-25.8"/>
		<g>
			<path fill="#1C75BC" d="M205.7,1147.7c-13.7-5.7-30,7.4-39.8,15.4c-13.8,11.2-26.3,24.7-36.6,39.2c-12.1,16.9-14.6,37.5-1.1,54.4
				c12.3,15.4,30.4,25.3,49.2,30.6c33.8,9.4,76.5,2.7,92.9-31.9c19.4-40.9-11.6-84.3-47.8-102.6c-5.9-3-13.7-5.7-19.7-1.8
				c-2.7,1.8-0.2,6.1,2.5,4.3c6.7-4.4,16.9,2.7,22.5,6.3c7.5,4.8,14.4,10.7,20.8,16.8c18,17.2,27.5,44.1,19.7,68.4
				c-12.8,39.8-60.5,45.1-95,34c-16.5-5.3-32.6-15.2-42.9-29.5c-11.7-16.3-5.9-34.4,5.1-49.2c9.5-12.8,20.8-24.5,33-34.8
				c8.5-7.2,23.7-19.9,35.8-14.8C207.3,1153.8,208.6,1148.9,205.7,1147.7L205.7,1147.7z"/>
		</g>
	</g>
</a>

<g>
	<g>
		<path fill="#DCA863" d="M403.9,197.6c-0.7,4.7,1,9.4,1.6,14c0.5,3.8,3.3,4.2,6.5,4.1c2.7,0,6.3,0.3,8.4-1.6
			c2.5-2.2,1.2-7.1,1.3-9.9c0.1-3.2-4.9-3.2-5,0c0,2,0.4,4.1,0.1,6.1c-0.3,0.7-0.1,0.7,0.4,0.1c-0.3,0.1-0.7,0.1-1,0.1
			c-1.2,0.1-2.4,0.2-3.6,0.2c-0.9,0-1.8,0-2.7,0c-1,0,0.4,0,0.5,0.2c-0.1-0.6,0-1.2-0.1-1.8c-0.2-3.4-2.1-6.8-1.6-10.2
			C409.2,195.8,404.4,194.5,403.9,197.6L403.9,197.6z"/>
	</g>
</g>

<!--prototype-->
<a xlink:href="../forms.html" target="_parent"> 
	<g>

		<path fill="#FFFFFF" d="M130.9,297.3c-19,3.5-27.8,36-24.2,52c6.9,30.9,57.6,51.8,86.3,51.1c41.2-1.1,72.8-43.6,58.6-82.7
			c-10.4-28.7-30.4-41-60.3-40.8c-15.3,0.1-50.3,10.1-59.6,22.8c0.9-0.2,1.9-0.4,2.8-0.6"/>
		<g>
			<path fill="#1C75BC" d="M130.2,294.9c-18.1,3.8-25.4,26.5-26.7,42.5c-1.6,19,10.2,33.6,24.9,44.1c16.2,11.7,36.6,19,56.4,21
				c21,2.1,41.4-6.5,55.5-21.9c12.6-13.7,19.3-33.1,16.6-51.7c-2.7-18.4-13.2-36.5-29.4-46.2c-14.8-8.9-33.6-9.9-50.2-6.8
				c-9.6,1.8-19,4.9-28,8.7c-7.3,3.1-14.8,7.2-19.8,13.7c-1.5,1.9,0.9,4.1,2.8,3.7c0.9-0.2,1.9-0.4,2.8-0.6c3.2-0.7,1.8-5.5-1.3-4.8
				c-0.9,0.2-1.9,0.4-2.8,0.6c0.9,1.2,1.9,2.4,2.8,3.7c6-7.8,17.1-11.8,26-15c9.5-3.3,19.6-6,29.7-6.5c21.6-1.2,42.1,7.2,53.5,26
				c12.5,20.5,12.2,45-1.1,65c-12.5,18.9-34.7,29.1-57.2,27.1c-13.3-1.2-26.5-5.5-38.5-11.3c-12-5.7-23.6-13.6-31.4-24.6
				c-7.2-10.3-7.6-21.9-4.9-33.8c2.6-11.3,9-25.5,21.5-28.1C134.7,299.1,133.3,294.3,130.2,294.9L130.2,294.9z"/>
		</g>
	</g>
</a>
<g>
	<g>
		<path fill="#1C75BC" d="M189.9,400.4c0.1,33.7,3.8,67.1,5.9,100.7c2.1,34,0.8,68.1,1.1,102.1c0,3.2,5,3.2,5,0
			c-0.3-33.4,0.9-66.8-1-100.1c-1.9-34.2-5.9-68.3-6-102.7C194.9,397.2,189.9,397.2,189.9,400.4L189.9,400.4z"/>
	</g>
</g>

<!--Refer to pattern library-->
	<a xlink:href="../components.html" target="_parent">
	<g>
		
		<path fill="#FFFFFF" d="M595.7,435.9c-10.8,46.4,25.3,86.3,73.1,87.9c36.7,1.3,79.6-33.6,65.7-72.9c-10.3-29.3-38.9-74.8-76.6-65.8
			c-27.6,6.6-45,34.4-57.2,56.8"/>
		<g>
			<path fill="#808285" d="M593.3,435.2c-4.7,21-0.5,42.5,12.5,59.7c12.9,17.1,32.9,27.6,53.9,30.5c21.4,3,42.4-3.8,58.9-17.6
				c16.1-13.5,24.9-34.3,19.3-55c-4.1-15-12.7-29.8-22-42.1c-9.6-12.7-22.1-24.1-37.8-28.1c-37.5-9.7-64.3,30.2-79.4,58
				c-1.5,2.8,2.8,5.4,4.3,2.5c11.2-20.7,24.7-42.5,46.9-52.7c22.2-10.2,43.2,1.4,58,18.3c7.2,8.3,13,17.8,17.9,27.5
				c4.7,9.5,9,19.6,9.1,30.4c0.1,23.3-20,41.8-40.1,49.9c-24,9.7-52.5,3.8-72.5-12c-20.7-16.2-29.6-42.5-24-68
				C598.8,433.4,594,432.1,593.3,435.2L593.3,435.2z"/>
		</g>
	</g>
</a>

<a xlink:href="../general.html#qa" target="_parent">
	<text transform="matrix(1 0 0 1 470.3138 816.3354)" font-family="'HandOfSean'" font-size="18">QA</text>
</a>

<!--Review UX with team-->
<a xlink:href="../general.html" target="_parent">
	<g>
		<path fill="#FFFFFF" d="M200.4,608.2c-24.6-1-47,13.7-60.1,33.9c-18.3,28.2-18.9,55.2,4.3,81.2c25.9,29,66.4,32.2,99.8,14.6
			c31.6-16.6,39.3-58.8,22-88.8c-11.4-19.6-44.5-52.9-69.5-40.5c0.2,2.6,1.7,4.5,4.5,5.5"/>
		<g>
			<path fill="#1C75BC" d="M200.4,605.7c-24.7-0.7-46.5,13-60.6,32.7c-15,21-20.6,46.9-8.5,70.5c11.3,22,33.5,37.4,57.6,41.3
				c21.7,3.6,47.5-1.8,65-15.4c25.8-20.1,30.3-57.8,15.3-85.7c-7.4-13.7-19.2-25.7-31.7-34.7c-12-8.7-27.6-14.5-41.8-7.9
				c-1.1,0.5-1.3,1.8-1.1,2.8c0.6,3.4,2.5,5.6,5.6,7c2.9,1.4,5.4-3,2.5-4.3c-1.8-0.9-3-2-3.3-4c-0.4,0.9-0.8,1.9-1.1,2.8
				c20.6-9.7,43.4,11.2,55.8,25.5c14.4,16.5,21.8,37.2,17.9,59.1c-1.9,10.7-6.7,20.8-14,29c-8,9.1-19.3,14.4-30.6,18
				c-23.9,7.5-50.1,4-70.3-11c-11.5-8.5-20.9-21-25.3-34.6c-4.5-13.8-1.9-28.3,3.9-41.2c11.6-25.4,35.8-45.8,64.8-44.9
				C203.7,610.8,203.6,605.8,200.4,605.7L200.4,605.7z"/>
		</g>
	</g>
</a>

<!--Begin engineering-->
<a xlink:href="../css.html" target="_parent">
	<g>	
		<path fill="#FFFFFF" d="M208.1,910.5c-24.6-1-47,13.7-60.1,33.9c-18.3,28.2-18.9,55.2,4.3,81.2c25.9,29,66.4,32.2,99.8,14.6
			c31.6-16.6,39.3-58.8,22-88.8c-11.4-19.6-44.5-52.9-69.5-40.5c0.2,2.6,1.7,4.5,4.5,5.5"/>
		<g>
			FFF
			<path fill="#1C75BC" d="M208.1,908c-24.7-0.7-46.5,13-60.6,32.7c-15,21-20.6,46.9-8.5,70.5c11.3,22,33.5,37.4,57.6,41.3
				c21.7,3.6,47.5-1.8,65-15.4c25.8-20.1,30.3-57.8,15.3-85.7c-7.4-13.7-19.2-25.7-31.7-34.7c-12-8.7-27.6-14.5-41.8-7.9
				c-1.1,0.5-1.3,1.8-1.1,2.8c0.6,3.4,2.5,5.6,5.6,7c2.9,1.4,5.4-3,2.5-4.3c-1.8-0.9-3-2-3.3-4c-0.4,0.9-0.8,1.9-1.1,2.8
				c20.6-9.7,43.4,11.2,55.8,25.5c14.4,16.5,21.8,37.2,17.9,59.1c-1.9,10.7-6.7,20.8-14,29c-8,9.1-19.3,14.4-30.6,18
				c-23.9,7.6-50.1,4-70.3-11c-11.5-8.5-20.9-21-25.3-34.6c-4.5-13.8-1.9-28.3,3.9-41.2c11.6-25.4,35.8-45.8,64.8-44.9
				C211.3,913.1,211.3,908.1,208.1,908L208.1,908z"/>
		</g>
	</g>
</a>

<a xlink:href="../forms.html" target="_parent">
	<rect x="122.4" y="328.3" fill="none" width="125" height="29.2"/>
	<text transform="matrix(1 0 0 1 142.8248 343.1481)" font-family="'HandOfSean'" font-size="18">Prototype</text>
</a>

<a xlink:href="../components.html" target="_parent">
	<rect x="603" y="426.6" fill="none" width="125" height="78.7"/>
	<text transform="matrix(1 0 0 1 626.9874 441.402)"><tspan x="0" y="0" font-family="'HandOfSean'" font-size="18">Refer to </tspan><tspan x="3.3" y="21.6" font-family="'HandOfSean'" font-size="18">Pattern</tspan><tspan x="5.3" y="43.2" font-family="'HandOfSean'" font-size="18">Library</tspan></text>
</a>

<a xlink:href="../general.html" target="_parent">
	<rect x="137.9" y="661.9" fill="none" width="125" height="53.1"/>
	<text transform="matrix(1 0 0 1 153.487 676.7429)"><tspan x="0" y="0" font-family="'HandOfSean'" font-size="18">Review UX </tspan><tspan x="3.8" y="21.6" font-family="'HandOfSean'" font-size="18">with Team</tspan></text>
</a>

<a xlink:href="../css.html" target="_parent">
	<rect x="146.4" y="956.2" fill="none" width="125" height="80.7"/>
	<text transform="matrix(1 0 0 1 184.5804 971.0234)"><tspan x="0" y="0" font-family="'HandOfSean'" font-size="18">Begin </tspan><tspan x="-23.1" y="21.6" font-family="'HandOfSean'" font-size="18">engineering</tspan></text>
</a>


<a xlink:href="../components.html" target="_parent">
	<rect x="134.8" y="1213.1" fill="none" width="125" height="40.4"/>
	<text transform="matrix(1 0 0 1 181.3777 1227.9701)" font-family="'HandOfSean'" font-size="18">QA</text>
</a>


<a xlink:href="../components.html" target="_parent">
	<rect x="468.7" y="1181.6" fill="none" width="125" height="80.7"/>
	<text transform="matrix(1 0 0 1 484.3427 1196.4723)"><tspan x="0" y="0" font-family="'HandOfSean'" font-size="18">UX Review </tspan><tspan x="-8.4" y="21.6" font-family="'HandOfSean'" font-size="18">with PM + UI</tspan></text>
</a>



<a xlink:href="../general.html#pms" target="_parent">
	<rect x="470.3" y="620.4" fill="none" width="90" height="53.1"/>
	<text transform="matrix(1 0 0 1 470.3138 635.2792)"><tspan x="0" y="0" font-family="'HandOfSean'" font-size="18">product</tspan><tspan x="0" y="21.6" font-family="'HandOfSean'" font-size="18">manager</tspan></text>
	<rect x="470.3" y="702.9" fill="none" width="90" height="53.1"/>
</a>

<a xlink:href="../general.html#uiux" target="_parent">
	<text transform="matrix(1 0 0 1 470.3138 717.7012)"><tspan x="0" y="0" font-family="'HandOfSean'" font-size="18">UI/UX </tspan><tspan x="0" y="21.6" font-family="'HandOfSean'" font-size="18">Designer</tspan></text>
	<rect x="470.3" y="801.5" fill="none" width="69" height="33.6"/>
</a>



<g>
	<g>
		<g>
			<path fill="#27AAE1" d="M203.5,477.7c10.7,0,21.3-0.6,32-0.7c3.2,0,3.2-5,0-5c-10.7,0.1-21.3,0.6-32,0.7
				C200.3,472.7,200.3,477.7,203.5,477.7L203.5,477.7z"/>
		</g>
	</g>
	<g>
		<g>
			<path fill="#27AAE1" d="M263.1,476.4c8.6,0.8,17.2,0.1,25.8-0.3c3.2-0.2,3.2-5.2,0-5c-8.6,0.4-17.2,1.2-25.8,0.3
				C259.9,471,259.9,476,263.1,476.4L263.1,476.4z"/>
		</g>
	</g>
	<g>
		<g>
			<path fill="#27AAE1" d="M336,474.7c4.7-0.5,9.5-0.7,14.2-0.7c3.2,0,3.2-5,0-5c-4.8,0-9.5,0.1-14.2,0.7
				C332.8,470.1,332.8,475.1,336,474.7L336,474.7z"/>
		</g>
	</g>
	<g>
		<g>
			<path fill="#27AAE1" d="M374.2,474.7c5-0.1,10.1-0.4,15.1-0.7c3.2-0.2,3.2-5.2,0-5c-5,0.3-10.1,0.6-15.1,0.7
				C371,469.7,370.9,474.7,374.2,474.7L374.2,474.7z"/>
		</g>
	</g>
	<g>
		<g>
			<path fill="#27AAE1" d="M417.7,473.7c1.5,0,3,0,4.4,0c1.4,0,2.5-1.1,2.5-2.5s-1.1-2.5-2.5-2.5c-1.5,0-3,0-4.4,0
				c-1.4,0-2.5,1.1-2.5,2.5S416.4,473.7,417.7,473.7L417.7,473.7z"/>
		</g>
	</g>
	<g>
		<g>
			<path fill="#27AAE1" d="M450.6,473.7c2.7,0,5.3-0.1,8-0.3c3.2-0.3,3.2-5.3,0-5c-2.7,0.2-5.3,0.3-8,0.3
				C447.4,468.7,447.4,473.7,450.6,473.7L450.6,473.7z"/>
		</g>
	</g>
	<g>
		<g>
			<path fill="#27AAE1" d="M490.6,472c6.2,0.8,12.4,0.2,18.7,0c3.2-0.1,3.2-5.1,0-5c-6.2,0.2-12.5,0.8-18.7,0
				C487.4,466.6,487.5,471.6,490.6,472L490.6,472z"/>
		</g>
	</g>
	<g>
		<g>
			<path fill="#27AAE1" d="M546.6,470.4c13.6-1.1,27.2-2.5,40.9-3.7c3.2-0.3,3.2-5.3,0-5c-13.6,1.1-27.2,2.6-40.9,3.7
				C543.4,465.6,543.4,470.6,546.6,470.4L546.6,470.4z"/>
		</g>
	</g>
</g>

<!--pm logo-->
<a xlink:href="../general.html#pms" target="_parent">
	<g>
		<g>
			<path fill="#808285" d="M417.5,603.9c-11,2.8-11.1,17.8-4.1,24.5c7.6,7.3,19,2.7,26.1-2.6c7.6-5.7,12-15.2,4.5-22.9
				c-8.1-8.2-21.4,0.9-27.2,7.4c-2.1,2.4,1.4,6,3.5,3.5c4.1-4.6,12-11.2,18.7-8.4c8.1,3.5,2.6,12-1.6,15.7c-4.1,3.6-10.7,7-16.3,5.8
				c-3.8-0.8-6.4-4-7.4-7.6c-1.1-3.8,1.2-9.6,5.3-10.6C421.9,608,420.6,603.1,417.5,603.9L417.5,603.9z"/>
		</g>
	</g>
	<g>
		<g>
			<path fill="#808285" d="M420.2,625.6c-4.8,0.8-6.5,8.4-7.7,12.2c-2.7,9.1-3.9,18.7-2.8,28.2c0.3,3.2,5.3,3.2,5,0
				c-0.9-8.3,0-16.3,2-24.3c0.6-2.4,2.1-10.8,4.9-11.3C424.7,629.9,423.3,625.1,420.2,625.6L420.2,625.6z"/>
		</g>
	</g>
	<g>
		<g>
			<path fill="#808285" d="M437.5,631.8c4,1.6,5,8.8,5.8,12.5c1.4,6.6,2.1,13.4,2,20.1c0,3.2,5,3.2,5,0c0.1-7.9-0.9-15.9-2.7-23.6
				c-1.2-5.4-3.3-11.6-8.8-13.8C435.8,625.7,434.5,630.5,437.5,631.8L437.5,631.8z"/>
		</g>
	</g>
	<g>
		<g>
			<path fill="#808285" d="M410.8,670.1c13.3-1.5,26.3-3.9,39.7-3.9c3.2,0,3.2-5,0-5c-13.4,0-26.4,2.4-39.7,3.9
				C407.7,665.4,407.6,670.4,410.8,670.1L410.8,670.1z"/>
		</g>
	</g>
</a>

<!--uiux logo-->
<a xlink:href="../general.html#uiux" target="_parent">
	<g>
		<g>
			<path fill="#808285" d="M415,690.1c-11,2.8-11.1,17.8-4.1,24.5c7.6,7.3,19,2.7,26.1-2.6c7.6-5.7,12-15.2,4.5-22.9
				c-8.1-8.2-21.4,0.9-27.2,7.4c-2.1,2.4,1.4,6,3.5,3.5c4.1-4.6,12-11.2,18.7-8.4c8.1,3.5,2.6,12-1.6,15.7c-4.1,3.6-10.7,7-16.3,5.8
				c-3.8-0.8-6.4-4-7.4-7.6c-1.1-3.8,1.2-9.6,5.3-10.6C419.5,694.2,418.2,689.3,415,690.1L415,690.1z"/>
		</g>
	</g>
	<g>
		<g>
			<path fill="#808285" d="M417.7,711.8c-4.8,0.8-6.5,8.4-7.7,12.2c-2.7,9.1-3.9,18.7-2.8,28.2c0.3,3.2,5.3,3.2,5,0
				c-0.9-8.3,0-16.3,2-24.3c0.6-2.4,2.1-10.8,4.9-11.3C422.2,716.1,420.9,711.3,417.7,711.8L417.7,711.8z"/>
		</g>
	</g>
	<g>
		<g>
			<path fill="#808285" d="M435,718c4,1.6,5,8.8,5.8,12.5c1.4,6.6,2.1,13.4,2,20.1c0,3.2,5,3.2,5,0c0.1-7.9-0.9-15.9-2.7-23.6
				c-1.2-5.4-3.3-11.6-8.8-13.8C433.4,711.9,432.1,716.8,435,718L435,718z"/>
		</g>
	</g>
	<g>
		<g>
			<path fill="#808285" d="M408.4,756.3c13.3-1.5,26.3-3.9,39.7-3.9c3.2,0,3.2-5,0-5c-13.4,0-26.4,2.4-39.7,3.9
				C405.2,751.6,405.2,756.6,408.4,756.3L408.4,756.3z"/>
		</g>
	</g>
</a>

<!--qa logo-->
<a xlink:href="../general.html#qa" target="_parent">
	<g>
		<g>
			<path fill="#808285" d="M415,775.4c-11,2.8-11.1,17.8-4.1,24.5c7.6,7.3,19,2.7,26.1-2.6c7.6-5.7,12-15.2,4.5-22.9
				c-8.1-8.2-21.4,0.9-27.2,7.4c-2.1,2.4,1.4,6,3.5,3.5c4.1-4.6,12-11.2,18.7-8.4c8.1,3.5,2.6,12-1.6,15.7c-4.1,3.6-10.7,7-16.3,5.8
				c-3.8-0.8-6.4-4-7.4-7.6c-1.1-3.8,1.2-9.6,5.3-10.6C419.5,779.4,418.2,774.6,415,775.4L415,775.4z"/>
		</g>
	</g>
	<g>
		<g>
			<path fill="#808285" d="M417.7,797.1c-4.8,0.8-6.5,8.4-7.7,12.2c-2.7,9.1-3.9,18.7-2.8,28.2c0.3,3.2,5.3,3.2,5,0
				c-0.9-8.3,0-16.3,2-24.3c0.6-2.4,2.1-10.8,4.9-11.3C422.2,801.4,420.9,796.5,417.7,797.1L417.7,797.1z"/>
		</g>
	</g>
	<g>
		<g>
			<path fill="#808285" d="M435,803.2c4,1.6,5,8.8,5.8,12.5c1.4,6.6,2.1,13.4,2,20.1c0,3.2,5,3.2,5,0c0.1-7.9-0.9-15.9-2.7-23.6
				c-1.2-5.4-3.3-11.6-8.8-13.8C433.4,797.2,432.1,802,435,803.2L435,803.2z"/>
		</g>
	</g>
	<g>
		<g>
			<path fill="#808285" d="M408.4,841.5c13.3-1.5,26.3-3.9,39.7-3.9c3.2,0,3.2-5,0-5c-13.4,0-26.4,2.4-39.7,3.9
				C405.2,836.9,405.2,841.9,408.4,841.5L408.4,841.5z"/>
		</g>
	</g>
</a>

<g>
	<g>
		<path fill="#808285" d="M382.7,604c-6.1-0.2-13.9-2-17.6,4.4c-1.6,2.8-1.5,6.8-1.5,9.9c0,5.9-0.1,11.8,0.1,17.7
			c0.7,24.2,1.4,48.4,1.7,72.6c0.3,24.3-0.2,48.6-1.3,72.9c-0.5,11.8-0.8,23.7-0.4,35.5c0.4,11.9,0.1,23.7,1.2,35.5
			c0.1,1.4,1,2.5,2.5,2.5c7.4,0.1,14.5-2.2,21.9-2.1c3.2,0,3.2-5,0-5c-7.4,0-14.5,2.2-21.9,2.1c0.8,0.8,1.7,1.7,2.5,2.5
			c-1-10.6-0.9-21.2-1.1-31.8c-0.2-11.1-0.4-22.2,0-33.3c0.8-22.4,1.7-44.6,1.7-67c-0.1-22.3-0.7-44.6-1.2-66.9
			c-0.3-11.1-0.9-22.1-0.7-33.2c0.1-3.2-1-8.9,2-11c2.8-2,8.8-0.5,12-0.4C385.9,609.1,385.9,604.1,382.7,604L382.7,604z"/>
	</g>
</g>
<g>
	<g>
		<path fill="#808285" d="M558.1,848.9c6.1,0.2,13.9,2,17.6-4.4c1.6-2.8,1.5-6.8,1.5-9.9c0-5.9,0.1-11.8-0.1-17.7
			c-0.7-24.2-1.4-48.4-1.7-72.6c-0.3-24.3,0.2-48.6,1.3-72.9c0.5-11.8,0.8-23.7,0.4-35.5c-0.4-11.9-0.1-23.7-1.2-35.5
			c-0.1-1.4-1-2.5-2.5-2.5c-7.4-0.1-14.5,2.2-21.9,2.1c-3.2,0-3.2,5,0,5c7.4,0,14.5-2.2,21.9-2.1c-0.8-0.8-1.7-1.7-2.5-2.5
			c1,10.6,0.9,21.2,1.1,31.8c0.2,11.1,0.4,22.2,0,33.3c-0.8,22.4-1.7,44.6-1.7,67c0.1,22.3,0.7,44.6,1.2,66.9
			c0.3,11.1,0.9,22.1,0.7,33.2c-0.1,3.2,1,8.9-2,11c-2.8,2-8.8,0.5-12,0.4C554.9,843.8,554.9,848.8,558.1,848.9L558.1,848.9z"/>
	</g>
</g>
<g>
	<g>
		<path fill="#1C75BC" d="M206.5,1056.1c0,17.2-0.5,34.3-0.3,51.5c0.1,6.9,0.4,13.8,1.1,20.6c0.5,5.2,1.5,10.6,1.2,15.9
			c-0.2,3.2,4.8,3.2,5,0c0.3-4.8-0.6-9.8-1.1-14.6c-0.7-6.6-1-13.3-1.2-20c-0.4-17.8,0.2-35.6,0.2-53.5
			C211.5,1052.9,206.5,1052.9,206.5,1056.1L206.5,1056.1z"/>
	</g>
</g>
<g>
	<g>
		<path fill="#1C75BC" d="M225.2,1291.9c26.4,21.5,51.7,44.3,75.9,68.2c10.4,10.3,20,21.4,30.6,31.4c10.1,9.5,20.8,18.3,31.8,26.7
			c2.6,2,5-2.4,2.5-4.3c-10.6-8.2-20.9-16.8-30.8-26c-10.7-9.9-20.3-21.1-30.6-31.4c-24.1-24-49.5-46.7-75.9-68.2
			C226.3,1286.3,222.7,1289.9,225.2,1291.9L225.2,1291.9z"/>
	</g>
</g>
<g>
	<g>
		<path fill="#1C75BC" d="M185.4,593.9c3,6.1,6.3,12,10.5,17.5c1.1,1.4,3.3,1.8,4.3,0c4.4-8,8.7-16,14.6-23c2.1-2.4-1.5-6-3.5-3.5
			c-6.2,7.3-10.8,15.6-15.4,24c1.4,0,2.9,0,4.3,0c-4.1-5.5-7.5-11.4-10.5-17.5C188.3,588.5,184,591.1,185.4,593.9L185.4,593.9z"/>
	</g>
</g>
<g>
	<g>
		<path fill="#1C75BC" d="M193.3,1132.9c6.6,6.5,11.7,14.2,17.9,21.1c1.1,1.2,3.1,0.8,3.9-0.5c5.1-8.3,8.2-17.8,14.7-25.1
			c2.1-2.4-1.4-5.9-3.5-3.5c-6.9,7.7-10.1,17.4-15.5,26.1c1.3-0.2,2.6-0.3,3.9-0.5c-6.2-6.9-11.3-14.6-17.9-21.1
			C194.6,1127.1,191,1130.7,193.3,1132.9L193.3,1132.9z"/>
	</g>
</g>
<g>
	<g>
		<g>
			<path fill="#27AAE1" d="M276.5,1224.5c3.1,0,6.2,0,9.3,0c3.2,0,3.2-5,0-5c-3.1,0-6.2,0-9.3,0
				C273.3,1219.5,273.3,1224.5,276.5,1224.5L276.5,1224.5z"/>
		</g>
	</g>
	<g>
		<g>
			<path fill="#27AAE1" d="M297.3,1224.5c1.7,0,3.5,0,5.2,0c3.2,0,3.2-5,0-5c-1.7,0-3.5,0-5.2,0C294,1219.5,294,1224.5,297.3,1224.5
				L297.3,1224.5z"/>
		</g>
	</g>
	<g>
		<g>
			<path fill="#27AAE1" d="M423.7,1224.5c4.5-0.1,8.8-1,13.1-2.1c3.1-0.8,1.8-5.6-1.3-4.8c-3.9,1-7.7,1.8-11.8,1.9
				C420.4,1219.6,420.4,1224.6,423.7,1224.5L423.7,1224.5z"/>
		</g>
	</g>
	<g>
		<g>
			<path fill="#27AAE1" d="M426.7,1209.9c8.8,2.9,18,4.8,25.5,10.4c0-1.4,0-2.9,0-4.3c-7.7,5.6-16,10.6-21.9,18.2
				c-2,2.5,1.5,6.1,3.5,3.5c5.7-7.3,13.5-12.1,20.9-17.4c1.6-1.2,1.6-3.1,0-4.3c-7.9-5.9-17.5-7.9-26.7-10.9
				C425,1204.1,423.7,1208.9,426.7,1209.9L426.7,1209.9z"/>
		</g>
	</g>
	<g>
		<g>
			<path fill="#27AAE1" d="M299.6,1231.8c-8.8-2.9-18-4.8-25.5-10.4c0,1.4,0,2.9,0,4.3c7.7-5.6,16-10.6,21.9-18.2
				c2-2.5-1.5-6.1-3.5-3.5c-5.7,7.3-13.5,12.1-20.9,17.4c-1.6,1.2-1.6,3.1,0,4.3c7.9,5.9,17.5,7.9,26.7,10.9
				C301.3,1237.7,302.6,1232.9,299.6,1231.8L299.6,1231.8z"/>
		</g>
	</g>
	<g>
		<g>
			<path fill="#27AAE1" d="M313.7,1223.9c6.2,1.2,13,0.4,19.3,0.4c7.7,0,15.3,0.4,23,0.7c3.2,0.1,3.2-4.9,0-5
				c-6.4-0.3-12.7-0.7-19.2-0.7c-7,0-15,1.2-21.8-0.2C311.8,1218.4,310.5,1223.3,313.7,1223.9L313.7,1223.9z"/>
		</g>
	</g>
	<g>
		<g>
			<path fill="#27AAE1" d="M370.7,1225.6c2.2-0.1,4.5,0.1,6.7,0.3c1.4,0.2,2.5-1.3,2.5-2.5c0-1.5-1.1-2.3-2.5-2.5
				c-2.2-0.3-4.4-0.4-6.7-0.3C367.4,1220.7,367.4,1225.7,370.7,1225.6L370.7,1225.6z"/>
		</g>
	</g>
	<g>
		<g>
			<path fill="#27AAE1" d="M389.7,1225.6c5.4-0.1,10.9,0.3,16.3,0.3c3.2,0,3.2-5,0-5c-5.4,0-10.9-0.4-16.3-0.3
				C386.4,1220.7,386.4,1225.7,389.7,1225.6L389.7,1225.6z"/>
		</g>
	</g>
</g>
<g>
	<g>
		<path fill="#27AAE1" d="M568,453.7c6.8,3.3,13.1,7.3,19.1,11.9c-0.2-1.3-0.3-2.6-0.5-3.9c-7.1,7-12.2,15.6-16.4,24.6
			c-1.4,2.9,2.9,5.4,4.3,2.5c4.1-8.6,8.8-16.9,15.6-23.6c1.3-1.2,0.7-3-0.5-3.9c-6-4.6-12.3-8.6-19.1-11.9
			C567.7,448,565.1,452.3,568,453.7L568,453.7z"/>
	</g>
</g>
<g>
	<g>
		<path fill="#1C75BC" d="M459.5,864.1c0,23.5,1.1,47,2.6,70.5c0.6,8.9,1,17.8,0.4,26.7c-0.3,3.7-0.7,7.8-2.4,11.2
			c-1.6,3.3-6.3,3.5-9.5,3.8c-8.7,0.8-17.5-0.4-26.2-0.5c-14.6-0.1-29.4,1-44,1.4c-30.4,0.9-60.7,3-91.1,3.1
			c0.7,1.3,1.4,2.5,2.2,3.8c0.9-2,1.7-4,2.6-6.1c0.4-1,0.9-2.1,1.5-3.1c0.8-1.5,1.5-1.1,0.3-1.7c2.9,1.4,5.4-3,2.5-4.3
			c-6.6-3.1-9.3,8.5-11.2,12.6c-0.8,1.7,0.1,3.8,2.2,3.8c31.7,0,63.3-2.2,95-3.2c14.2-0.4,28.6-1.7,42.7-1.3
			c9.5,0.3,19.1,1.5,28.5-0.2c7.4-1.3,10.1-6.5,11.3-13.5c1.6-9.3,1.1-18.9,0.6-28.3c-1.3-24.4-2.7-48.9-2.8-73.3c0-0.5,0-1,0-1.5
			C464.5,860.9,459.5,860.9,459.5,864.1L459.5,864.1z"/>
	</g>
</g>
<g>
	<g>
		<path fill="#1C75BC" d="M287.2,985.9c5.3,4.1,8.7,11,15.1,13.6c3,1.2,4.3-3.6,1.3-4.8c-2.5-1-4.5-3.8-6.3-5.7
			c-2.1-2.3-4.1-4.7-6.6-6.6C288.3,980.4,284.7,983.9,287.2,985.9L287.2,985.9z"/>
	</g>
</g>
<g>
	<g>
		<path fill="#1C75BC" d="M277,690.6c28.8-0.6,57.2-5.8,86-6c3.2,0,3.2-5,0-5c-28.8,0.2-57.2,5.4-86,6
			C273.8,685.7,273.8,690.7,277,690.6L277,690.6z"/>
	</g>
</g>
<g>
	<g>
		<path fill="#1C75BC" d="M345.2,670.9c3.8,3.8,8.8,7.4,11.4,12.2c2.6,4.8-3.4,12.1-5.8,15.8c-1.8,2.7,2.6,5.2,4.3,2.5
			c3.5-5.4,8.2-12,6.6-18.8c-1.4-6.2-8.8-11.1-13-15.2C346.5,665.1,342.9,668.6,345.2,670.9L345.2,670.9z"/>
	</g>
</g>
<g>
	<g>
		<path fill="#1C75BC" d="M348,1418.1c5.6,0.2,11.3,0.3,16.9,0c1.4-0.1,2.4-1.1,2.5-2.5c0.6-7.9-2.3-15.2-4.5-22.6
			c-0.9-3.1-5.7-1.8-4.8,1.3c2.1,7,4.9,13.9,4.3,21.3c0.8-0.8,1.7-1.7,2.5-2.5c-5.6,0.3-11.3,0.2-16.9,0
			C344.8,1413,344.8,1418,348,1418.1L348,1418.1z"/>
	</g>
</g>
<g>
	<g>
		<path fill="#27AAE1" d="M664.5,528.1c0,9,0,18,0,27c0,3.2,5,3.2,5,0c0-9,0-18,0-27C669.5,524.9,664.5,524.9,664.5,528.1
			L664.5,528.1z"/>
	</g>
</g>
<g>
	<g>
		<path fill="#27AAE1" d="M663.5,575.1c0,10.3,0.7,20.7,1,31c0.1,3.2,5.1,3.2,5,0c-0.3-10.3-1-20.7-1-31
			C668.5,571.9,663.5,571.9,663.5,575.1L663.5,575.1z"/>
	</g>
</g>
<g>
	<g>
		<path fill="#27AAE1" d="M662.5,628.1c0,10-0.6,20-1,30c-0.1,3.2,4.9,3.2,5,0c0.4-10,1-20,1-30
			C667.5,624.9,662.5,624.9,662.5,628.1L662.5,628.1z"/>
	</g>
</g>
<g>
	<g>
		<path fill="#27AAE1" d="M658.6,679.8c3.6,11.4,2,23.6,1.9,35.3c0,3.2,5,3.2,5,0c0-12.2,1.7-24.8-2.1-36.7
			C662.4,675.4,657.6,676.7,658.6,679.8L658.6,679.8z"/>
	</g>
</g>
<g>
	<g>
		<path fill="#27AAE1" d="M658.5,739.1c0,4,0,8,0,12c0,3.2,5,3.2,5,0c0-4,0-8,0-12C663.5,735.9,658.5,735.9,658.5,739.1L658.5,739.1
			z"/>
	</g>
</g>
<g>
	<g>
		<path fill="#27AAE1" d="M656.5,783.1c0,5.7,0,11.3,0,17c0,3.2,5,3.2,5,0c0-5.7,0-11.3,0-17C661.5,779.9,656.5,779.9,656.5,783.1
			L656.5,783.1z"/>
	</g>
</g>
<g>
	<g>
		<path fill="#27AAE1" d="M657.5,858.1c0.4,14.5,0.2,29-1.9,43.3c-0.5,3.2,4.4,4.5,4.8,1.3c2.2-14.8,2.6-29.7,2.1-44.7
			C662.4,854.9,657.4,854.9,657.5,858.1L657.5,858.1z"/>
	</g>
</g>
<g>
	<g>
		<path fill="#27AAE1" d="M657.8,821.9c-1.7,3.9-1.3,8.1-1.3,12.3c0,3.2,5,3.2,5,0c0-3.1-0.6-6.9,0.7-9.7
			C663.4,821.5,659.1,818.9,657.8,821.9L657.8,821.9z"/>
	</g>
</g>
<g>
	<g>
		<path fill="#27AAE1" d="M654.5,916.1c1.8,16.3,1,32.7,1,49c0,3.2,5,3.2,5,0c0-16.3,0.8-32.7-1-49
			C659.1,913,654.1,912.9,654.5,916.1L654.5,916.1z"/>
	</g>
</g>
<g>
	<g>
		<path fill="#27AAE1" d="M654.5,982.1c0,3,0,6,0,9c0,3.2,5,3.2,5,0c0-3,0-6,0-9C659.5,978.9,654.5,978.9,654.5,982.1L654.5,982.1z"
			/>
	</g>
</g>
<g>
	<g>
		<path fill="#27AAE1" d="M651.5,1018.1c0,11.3-0.7,22.7-1,34c-0.1,3.2,4.9,3.2,5,0c0.3-11.3,1-22.7,1-34
			C656.5,1014.9,651.5,1014.9,651.5,1018.1L651.5,1018.1z"/>
	</g>
</g>
<g>
	<g>
		<path fill="#27AAE1" d="M648.5,1084.1c0,10.6-0.5,21.1,1.1,31.7c0.5,3.2,5.3,1.8,4.8-1.3c-1.5-10.1-0.9-20.2-0.9-30.3
			C653.5,1080.9,648.5,1080.9,648.5,1084.1L648.5,1084.1z"/>
	</g>
</g>
<g>
	<g>
		<path fill="#27AAE1" d="M646.5,1139.1c0,10.7,0,21.3,0,32c0,3.2,5,3.2,5,0c0-10.7,0-21.3,0-32
			C651.5,1135.9,646.5,1135.9,646.5,1139.1L646.5,1139.1z"/>
	</g>
</g>
<g>
	<g>
		<path fill="#27AAE1" d="M644.5,1193.1c0,2.3,0,4.7,0,7c0,3.2,5,3.2,5,0c0-2.3,0-4.7,0-7C649.5,1189.9,644.5,1189.9,644.5,1193.1
			L644.5,1193.1z"/>
	</g>
</g>
<g>
	<g>
		<path fill="#27AAE1" d="M645.7,1210.7c-3.8-0.8-7.5-0.8-11.3,0c-3.2,0.7-1.8,5.5,1.3,4.8c2.9-0.6,5.8-0.6,8.7,0
			C647.5,1216.2,648.8,1211.4,645.7,1210.7L645.7,1210.7z"/>
	</g>
</g>
<g>
	<g>
		<path fill="#27AAE1" d="M614.3,1217.5c2.4,0.5,4.9,0.2,6.9-1.3c1.1-0.8,1.6-2.2,0.9-3.4c-0.6-1.1-2.3-1.7-3.4-0.9
			c-1,0.7-1.9,1-3.1,0.7c-1.3-0.3-2.7,0.4-3.1,1.7C612.2,1215.7,613,1217.3,614.3,1217.5L614.3,1217.5z"/>
	</g>
</g>
<g>
	<g>
		<path fill="#27AAE1" d="M655.8,548.9c5.7-5.7,7.7-13.6,12.2-20.2c-1.5-0.2-3-0.4-4.6-0.6c2.6,8.3,7.8,14.9,15.4,19.2
			c2.8,1.6,5.3-2.7,2.5-4.3c-6.5-3.6-10.8-9.1-13.1-16.2c-0.7-2.1-3.4-2.4-4.6-0.6c-4.2,6.2-6,13.8-11.4,19.2
			C650,547.7,653.5,551.2,655.8,548.9L655.8,548.9z"/>
	</g>
</g>
<g>
	<g>
		<path fill="#FBB040" d="M409.6,195.3c0.6-3.7,0.7-6.5-0.9-9.9c-1.7-3.7-5-6.7-7-10.3c-4.8-8.8-6.7-19.4-4-29.2
			c4.4-16,28.3-33.6,41-15.6c5,7.1,3.4,16.1,1.7,24c-1.8,8.3-4.8,16.8-11.1,22.9c-2.5,2.4-6,3.8-8.7,6c-2.6,2.2-3.5,5.3-3.8,8.6
			c-0.2,1.8,0,3.7,0.1,5.5c0.2,2.1,0.9,2.3-1.7,2.5c-1.4,0.1-4.1,0.4-5-0.8c-0.8-1.1-1-3-1.6-4.3c-1.5-2.9-5.8-0.3-4.3,2.5
			c1.3,2.5,1.4,5.8,4.6,6.9c3.2,1.1,8.1,1.4,11.1-0.4c3.5-2,1.9-5.8,1.8-9.1c-0.3-7.3,4.5-9,9.6-12.7c7.8-5.5,11.3-16.1,13.5-24.9
			c2.3-9.1,3.4-18.3-0.6-27c-3.7-7.9-12.4-12.6-20.9-12.3c-9.7,0.3-18.3,7.4-24,14.6c-6.3,8-9.1,17.9-7.7,28
			c0.8,5.6,2.5,10.8,4.9,16c2.9,6.1,9.3,10.4,8.1,17.8C404.2,197.1,409.1,198.5,409.6,195.3L409.6,195.3z"/>
	</g>
</g>
<g>
	<g>
		<path fill="#FBB040" d="M415,191.9c0.1-8.6-2.6-17-3.1-25.6c-0.3-4.2,1-14.9-4.8-16.4c-6.2-1.7-5.1,6.7-3.4,9.7
			c3.1,5.5,8.9,7.4,14.7,4.9c5.4-2.3,10.1-6.4,11.7-12.2c0.9-3.1-1.3-13.5-6.4-11.4c-5.9,2.4-6.8,12.6-7.8,18
			c-0.7,4-1.1,8.1-1.4,12.2c-0.3,4.2,0.6,8.2,0.4,12.3c-0.2,3.2,4.8,3.2,5,0c0.2-3.5-0.6-7.1-0.5-10.7c0.2-4.8,0.8-9.5,1.6-14.2
			c0.4-2.2,0.9-4.4,1.5-6.6c0.2-0.9,2.1-5.2,1.8-5.7c3.3,4.7-1.4,9.7-5.1,12.1c-4.1,2.7-8.3,3.2-11.3-1.4c-0.4-1-1.1-1.7-2.2-1.9
			c0.5,1.2,0.8,2.4,0.8,3.7c0.2,1.9,0.1,3.8,0.2,5.6c0.4,9.2,3.3,18.3,3.2,27.4C410,195.1,415,195.1,415,191.9L415,191.9z"/>
	</g>
</g>
<g>
	<g>
		<path fill="#F2C989" d="M369.2,170.8c3.2,0.4,6.2,0.5,9.3,0c3.2-0.5,1.8-5.4-1.3-4.8c-2.2,0.4-4.5,0.3-6.7,0
			c-1.3-0.2-2.7,0.3-3.1,1.7C367.1,168.9,367.8,170.6,369.2,170.8L369.2,170.8z"/>
	</g>
</g>
<g>
	<g>
		<path fill="#F2C989" d="M375.2,124.8c0.1,0,0.1,0,0.2-0.1c-0.6,0.1-1,0-1.5-0.4c0.5,0.4-0.2-0.4,0.2,0.2c0.3,0.5,0.6,1,0.8,1.5
			c0.5,1.2,0.9,2.4,1.5,3.5c0.6,1.2,2.3,1.5,3.4,0.9c1.3-0.7,1.5-2.2,0.9-3.4c-1.2-2.5-2.7-8.6-6.8-7.1c-1.3,0.5-2.1,1.7-1.7,3.1
			C372.4,124.3,373.9,125.3,375.2,124.8L375.2,124.8z"/>
	</g>
</g>
<g>
	<g>
		<path fill="#F2C989" d="M414,95.1c-0.1,2.3,0.5,4.6,1.7,6.6c1.6,2.8,5.9,0.3,4.3-2.5c-0.7-1.3-1-2.6-1-4.1
			C419.1,91.9,414.1,91.9,414,95.1L414,95.1z"/>
	</g>
</g>
<g>
	<g>
		<path fill="#F2C989" d="M460.4,116.6c3.3-2.3,7.1-3.5,10.7-5.1c2.9-1.2,1.6-6.1-1.3-4.8c-4.1,1.7-8.3,3-11.9,5.6
			C455.3,114.1,457.8,118.4,460.4,116.6L460.4,116.6z"/>
	</g>
</g>
<g>
	<g>
		<path fill="#F2C989" d="M463.9,148.2c2.4,0.5,4.6,1.3,6.7,2.4c2.8,1.5,5.4-2.8,2.5-4.3c-2.5-1.3-5.1-2.4-7.9-2.9
			C462,142.7,460.7,147.6,463.9,148.2L463.9,148.2z"/>
	</g>
</g>
<g>
	<g>
		<path fill="#F2C989" d="M452.6,179.9c2.1,1.6,4.4,2.8,6.7,4c2.9,1.4,5.4-2.9,2.5-4.3c-2.3-1.2-4.6-2.4-6.7-4
			c-1.1-0.8-2.8-0.2-3.4,0.9C450.9,177.8,451.5,179.1,452.6,179.9L452.6,179.9z"/>
	</g>
</g>
<g>
	<g>
		<path fill="#1C75BC" d="M239,296.1c21.4-7.4,40.8-19.2,60.6-29.9c9.8-5.3,19.8-10.2,30.2-14.2c9.7-3.8,19.7-7.4,28.4-13.4
			c2.6-1.8,0.1-6.2-2.5-4.3c-8.8,6-18.9,9.6-28.7,13.5c-9.7,3.8-19.1,8.4-28.4,13.3c-20,10.7-39.4,22.8-61,30.3
			C234.6,292.3,235.9,297.1,239,296.1L239,296.1z"/>
	</g>
</g>
<g>
	<g>
		<path fill="#1C75BC" d="M247.8,272.7c-4.2,6.5-6.6,13.8-10.1,20.6c-1,2,0.6,4.2,2.8,3.7c6.4-1.5,13,0.9,19.4,1.5
			c3.2,0.3,3.2-4.7,0-5c-7-0.6-13.7-3-20.8-1.3c0.9,1.2,1.9,2.4,2.8,3.7c3.5-6.8,6-14.1,10.1-20.6
			C253.9,272.5,249.6,270,247.8,272.7L247.8,272.7z"/>
	</g>
</g>
</svg>
